<svg width="302" height="311" viewBox="0 0 302 311" fill="none" xmlns="http://www.w3.org/2000/svg">
<path fill-rule="evenodd" clip-rule="evenodd" d="M160.877 5.60677C184.684 -0.741208 210.026 -2.60774 233.521 4.81936C259.725 13.1032 293.866 23.2684 300.928 49.8798C308.571 78.6808 273.056 101.738 266.983 130.912C262.578 152.066 280.625 175.277 270.815 194.521C261.015 213.747 231.993 212.959 217.172 228.627C193.979 253.146 194.263 306.053 160.877 310.743C129.773 315.113 121.336 262.465 94.6675 245.837C69.3115 230.027 29.5668 241.127 11.2786 217.468C-6.69391 194.218 1.04746 159.929 5.83063 130.912C10.1403 104.767 17.7461 77.2341 37.3297 59.4284C55.7433 42.6865 84.7786 48.3332 107.58 38.4001C127.03 29.9269 140.382 11.0716 160.877 5.60677Z" fill="#F5E6E5"/>
<path d="M218 95C232.912 95 245 82.9117 245 68C245 53.0883 232.912 41 218 41C203.088 41 191 53.0883 191 68C191 82.9117 203.088 95 218 95Z" fill="#F2F2F2"/>
<path d="M218 48.1321C218.844 48.1321 219.528 47.4478 219.528 46.6038C219.528 45.7597 218.844 45.0755 218 45.0755C217.156 45.0755 216.472 45.7597 216.472 46.6038C216.472 47.4478 217.156 48.1321 218 48.1321Z" fill="black" fill-opacity="0.1"/>
<path d="M196.604 69.5283C197.448 69.5283 198.132 68.8441 198.132 68C198.132 67.1559 197.448 66.4717 196.604 66.4717C195.76 66.4717 195.075 67.1559 195.075 68C195.075 68.8441 195.76 69.5283 196.604 69.5283Z" fill="black" fill-opacity="0.1"/>
<path d="M239.396 69.5283C240.24 69.5283 240.925 68.8441 240.925 68C240.925 67.1559 240.24 66.4717 239.396 66.4717C238.552 66.4717 237.868 67.1559 237.868 68C237.868 68.8441 238.552 69.5283 239.396 69.5283Z" fill="black" fill-opacity="0.1"/>
<path d="M218 90.9245C218.844 90.9245 219.528 90.2403 219.528 89.3962C219.528 88.5522 218.844 87.8679 218 87.8679C217.156 87.8679 216.472 88.5522 216.472 89.3962C216.472 90.2403 217.156 90.9245 218 90.9245Z" fill="black" fill-opacity="0.1"/>
<path fill-rule="evenodd" clip-rule="evenodd" d="M218 49.6604L219.019 67.4906H216.981L218 49.6604Z" fill="#AFB9C5"/>
<path fill-rule="evenodd" clip-rule="evenodd" d="M227.016 77.0162L217.65 69.0913L219.091 67.6504L227.016 77.0162Z" fill="#AFB9C5"/>
<path d="M218 70.0377C219.125 70.0377 220.038 69.1254 220.038 68C220.038 66.8746 219.125 65.9623 218 65.9623C216.875 65.9623 215.962 66.8746 215.962 68C215.962 69.1254 216.875 70.0377 218 70.0377Z" fill="#C5CFD6"/>
<path fill-rule="evenodd" clip-rule="evenodd" d="M102.972 80.3736C100.024 76.9135 98.0287 72.6731 98.3621 67.9216C99.3227 54.2312 118.38 57.2429 122.087 64.1527C125.794 71.0624 125.354 88.5895 120.563 89.8244C118.652 90.3169 114.582 89.1105 110.439 86.6136L113.039 105.009H97.686L102.972 80.3736Z" fill="#B28B67"/>
<path fill-rule="evenodd" clip-rule="evenodd" d="M113.336 56.189C111.313 55.8571 105.864 55.629 104.859 55.6291C104.217 55.6291 103.521 55.7758 103.141 55.1862C102.83 54.7034 102.944 53.8869 102.851 53.3266C102.743 52.6757 102.59 52.0333 102.434 51.3924C101.993 49.5689 101.326 47.834 100.392 46.2051C98.6407 43.1492 96.0745 40.7555 92.8347 39.3627C89.2571 37.8247 85.2087 37.4725 81.3605 37.7845C77.2424 38.1182 73.5145 39.4777 69.6264 40.757C65.9211 41.9761 62.0403 42.456 58.165 41.8606C54.2606 41.2609 51.3104 39.1447 48.017 37.1361C44.6455 35.0799 40.7926 33.735 36.8069 34.0441C33.0864 34.3328 29.6574 35.869 26.5809 37.9212C23.7025 39.8412 21.3275 42.1512 19.9866 45.4024C18.5441 48.8997 18.5454 52.7386 20.9175 55.8294C24.3558 60.3096 30.7388 61.4681 36.0493 61.353C39.1209 61.2865 42.1376 60.7258 45.0376 59.7059C48.9051 58.3455 52.2472 56.0399 55.8653 54.1692C57.5633 53.2914 59.3184 52.5704 61.1581 52.0511C62.9433 51.5469 64.7017 51.3157 66.318 52.3941C68.0279 53.535 69.5601 54.6557 71.5163 55.3699C73.3928 56.0551 75.3805 56.4383 77.3798 56.4228C81.2698 56.3928 85.1043 55.1808 88.8824 54.3689C91.9633 53.707 95.2597 53.0473 98.4006 53.6836C99.7113 53.9492 101.626 54.4974 102.099 55.8595C94.1317 57.3035 91.0025 67.1569 93.2487 74.3903C94.4609 78.2944 101.748 82.8583 104.581 80.8059C106.376 79.5056 105.287 77.7985 104.581 76.6716C103.231 74.5136 102.769 71.7415 105.268 70.239C107.423 68.9432 109.69 72.0205 109.733 72.0171C110.325 71.9704 115.445 69.0751 118.972 64.8501C122.452 65.0563 122.98 62.762 122.149 60.8856C121.318 59.0092 116.132 56.6477 113.336 56.189Z" fill="#AA5B5F"/>
<path fill-rule="evenodd" clip-rule="evenodd" d="M85.3038 158.106C86.4572 173.85 160.767 220.2 161.201 221.5C161.393 222.078 153.683 240.349 138.071 276.313L144.567 278.837C168.514 240.749 179.872 219.676 178.642 215.617C176.881 209.807 157.663 190.692 120.986 158.274L85.3038 158.106Z" fill="#B28B67"/>
<path fill-rule="evenodd" clip-rule="evenodd" d="M139.78 268.191L150.386 272.052C172.749 246.819 181.514 226 179.916 215.393C178.851 208.321 159.698 189.238 122.459 158.145L84.5431 158.145C85.8368 194.604 154.713 221.639 155.634 223.193C156.555 224.747 147.489 239.963 139.78 268.191Z" fill="#F4B64C"/>
<path fill-rule="evenodd" clip-rule="evenodd" d="M135.681 275.073C134.355 276.623 133.53 277.844 133.205 278.736C132.811 279.82 132.416 281.467 132.02 283.678C133.277 284.136 144.579 288.25 165.925 296.019C167.867 293.427 167.93 291.669 166.117 290.746C164.303 289.823 162.802 289.039 161.615 288.395L148.413 275.634C148.159 275.388 147.754 275.395 147.508 275.649C147.504 275.654 147.5 275.658 147.496 275.662L145.588 277.751C143.533 277.931 141.955 277.821 140.857 277.422C139.964 277.097 138.862 276.287 137.552 274.994L137.552 274.994C137.049 274.497 136.239 274.503 135.743 275.006C135.721 275.027 135.701 275.05 135.681 275.073Z" fill="#B48A91"/>
<path fill-rule="evenodd" clip-rule="evenodd" d="M93.8479 158.106L60.7448 237.577L28.2096 304.763H35.8857L119.868 158.106H93.8479Z" fill="#997659"/>
<path fill-rule="evenodd" clip-rule="evenodd" d="M27.7504 301.661C27.0347 303.572 26.6768 305.001 26.6768 305.95C26.6768 307.103 26.869 308.787 27.2534 311C28.5917 311 40.6188 311 63.3349 311C64.2726 307.9 63.7313 306.227 61.7112 305.98C59.691 305.732 58.0129 305.509 56.6767 305.31L39.9063 297.834C39.5836 297.69 39.2054 297.835 39.0615 298.158C39.0591 298.163 39.0567 298.169 39.0544 298.174L37.9764 300.789C36.1063 301.662 34.5866 302.098 33.4174 302.098C32.4674 302.098 31.1555 301.714 29.4817 300.947L29.4817 300.947C28.8394 300.653 28.0799 300.935 27.7855 301.577C27.7728 301.605 27.7611 301.633 27.7504 301.661Z" fill="#B48A91"/>
<path fill-rule="evenodd" clip-rule="evenodd" d="M31.1477 290.806L48.2041 294.004C61.3921 274.616 116.584 195.115 122.635 158.106H84.6641C64.4558 184.86 43.7186 271.096 31.1477 290.806Z" fill="#F1D796"/>
<path fill-rule="evenodd" clip-rule="evenodd" d="M151.423 140.589L174.603 130.409C178.663 126.363 182.585 123.287 186.366 121.183C187.497 120.823 189.429 120.714 187.368 123.724C185.306 126.735 183.274 129.994 184.097 131.049C184.921 132.104 187.307 130.94 188.249 132.656C188.878 133.8 184.856 135.168 176.185 136.761L158.824 150.071L151.423 140.589ZM57.7086 143.393L70.8177 145.994C57.6343 170.562 50.5643 183.584 49.6077 185.058C47.4552 188.375 49.4635 194.454 50.2053 197.655C45.5514 198.738 47.3868 191.733 41.4973 193.196C36.1217 194.531 31.5639 197.957 26.5513 193.336C25.9351 192.768 25.4839 190.993 27.5851 190.082C32.8198 187.813 40.5537 183.565 41.8077 181.916C43.5178 179.666 48.8182 166.825 57.7086 143.393Z" fill="#B28B67"/>
<path fill-rule="evenodd" clip-rule="evenodd" d="M106.447 94.3464L111.979 93.3976C124.028 105.085 128.944 133.165 136.974 136.882C144.566 140.396 155.327 136.995 168.12 132.404L172.037 141.157C160.414 153.731 135.653 164.354 125.617 158.29C109.57 148.593 105.865 113.961 106.447 94.3464Z" fill="#EA8679"/>
<path fill-rule="evenodd" clip-rule="evenodd" d="M82.3327 163.864C104.513 163.864 120.828 163.864 131.279 163.864C133.515 163.864 133.094 160.634 132.771 159.005C129.039 140.196 114.473 119.922 114.473 93.1493L100.355 90.9354C88.6771 109.717 84.6388 132.84 82.3327 163.864Z" fill="#DDE3E9"/>
<path fill-rule="evenodd" clip-rule="evenodd" d="M77.4508 144.821C67.4728 162.82 59.0857 175.778 52.2896 183.695L42.0301 181.686C48.6388 140.7 67.7768 110.45 99.444 90.9354H101.992L105.034 90.9354C117.709 134.14 121.203 162.928 115.517 177.298H71.4574C72.1544 166.783 74.3895 155.663 77.4508 144.821H77.4508Z" fill="#FEA895"/>
</svg>
