<svg width="302" height="311" viewBox="0 0 302 311" fill="none" xmlns="http://www.w3.org/2000/svg">
<path fill-rule="evenodd" clip-rule="evenodd" d="M160.877 5.60677C184.684 -0.741208 210.026 -2.60774 233.521 4.81936C259.725 13.1032 293.866 23.2684 300.928 49.8798C308.571 78.6808 273.056 101.738 266.983 130.912C262.578 152.066 280.625 175.277 270.815 194.521C261.015 213.747 231.993 212.959 217.172 228.627C193.979 253.146 194.263 306.053 160.877 310.743C129.773 315.113 121.336 262.465 94.6675 245.837C69.3115 230.027 29.5668 241.127 11.2786 217.468C-6.69391 194.218 1.04746 159.929 5.83063 130.912C10.1403 104.767 17.7461 77.2341 37.3297 59.4284C55.7433 42.6865 84.7786 48.3332 107.58 38.4001C127.03 29.9269 140.382 11.0716 160.877 5.60677Z" fill="#E5F5ED"/>
<path fill-rule="evenodd" clip-rule="evenodd" d="M205.721 67.6362C209.238 63.512 211.618 58.4578 211.22 52.7944C210.074 36.4765 187.339 40.0663 182.917 48.3021C178.495 56.538 179.02 77.4289 184.736 78.9009C187.015 79.4879 191.871 78.0499 196.813 75.0738L193.711 97H212.026L205.721 67.6362Z" fill="#915B3C"/>
<path fill-rule="evenodd" clip-rule="evenodd" d="M207.128 71.3095C209.427 61.0912 215.976 54.1257 214.976 49.5585C214.309 46.5138 212.532 44.6203 209.644 43.8782C208.151 37.8418 203.334 35.2743 195.194 36.1757C182.985 37.5277 175.533 42.5939 178.751 53.7418C181.709 53.7418 185.28 52.6728 190.219 54.5043C191.786 55.0854 192.906 56.8874 193.581 59.9105H195.813C197.978 56.323 200.114 55.0046 202.219 55.9555C204.325 56.9064 204.803 59.2161 203.655 62.8846L204.754 71.3095H207.128Z" fill="#191847"/>
<path fill-rule="evenodd" clip-rule="evenodd" d="M263.158 192.312H175.395C168.651 192.312 163.184 197.775 163.184 204.512V274.662C163.184 281.4 168.651 286.862 175.395 286.862H263.158C269.902 286.862 275.368 281.4 275.368 274.662V204.512C275.368 197.775 269.902 192.312 263.158 192.312ZM250.947 213.662C252.633 213.662 254 215.028 254 216.712V262.462C254 264.147 252.633 265.512 250.947 265.512H187.605C185.919 265.512 184.553 264.147 184.553 262.462V216.712C184.553 215.028 185.919 213.662 187.605 213.662H250.947Z" fill="#C5CFD6"/>
<path fill-rule="evenodd" clip-rule="evenodd" d="M87.5103 283.05C102.557 264.692 112.737 251.083 118.052 242.221C127.153 227.048 134.602 213.547 136.952 208.389C142.557 196.091 124.048 190.332 119.859 196.068C113.519 204.751 99.978 232.072 79.2369 278.031L87.5103 283.05Z" fill="#B28B67"/>
<path fill-rule="evenodd" clip-rule="evenodd" d="M118.343 277.713L146.345 207.286C152.334 194.447 123.412 186.008 119.01 191.983C109.017 205.547 85.2667 259.057 82.2895 263.099L118.343 277.713Z" fill="#3B36C4"/>
<path fill-rule="evenodd" clip-rule="evenodd" d="M192.923 263.591C187.468 255.641 167.626 228.894 156.819 217.827C153.714 214.647 150.684 211.595 147.818 208.75C139.299 200.296 122.338 214.504 130.841 222.204C152.017 241.383 182.913 267.273 185.494 269.581C189.112 272.816 196.351 268.587 192.923 263.591Z" fill="#915B3C"/>
<path fill-rule="evenodd" clip-rule="evenodd" d="M191.645 259.999C193.524 261.545 194.747 262.807 195.313 263.787C196.001 264.978 196.807 266.831 197.73 269.345C196.348 270.142 183.923 277.309 160.456 290.844C157.638 288.203 157.199 286.152 159.138 284.693C161.078 283.234 162.678 282.004 163.94 281.002L176.803 263.29C177.051 262.949 177.528 262.873 177.869 263.121C177.875 263.125 177.881 263.129 177.886 263.134L180.56 265.191C183.013 264.978 184.843 264.523 186.051 263.826C187.032 263.26 188.159 262.082 189.43 260.293L189.43 260.293C189.918 259.606 190.871 259.445 191.558 259.932C191.588 259.953 191.617 259.975 191.645 259.999Z" fill="#7D7D7D"/>
<path fill-rule="evenodd" clip-rule="evenodd" d="M93.9825 280.306C94.8363 282.584 95.2632 284.287 95.2632 285.418C95.2632 286.793 95.0339 288.799 94.5754 291.437C92.9789 291.437 78.6311 291.437 51.5319 291.437C50.4134 287.743 51.059 285.748 53.469 285.453C55.8789 285.159 57.8809 284.893 59.4749 284.655L79.4811 275.744C79.866 275.573 80.3172 275.746 80.4889 276.13C80.4918 276.137 80.4946 276.143 80.4974 276.15L81.7834 279.267C84.0143 280.307 85.8272 280.827 87.222 280.827C88.3553 280.827 89.9203 280.37 91.9171 279.455L91.9171 279.455C92.6834 279.104 93.5894 279.44 93.9407 280.206C93.9558 280.239 93.9698 280.272 93.9825 280.306Z" fill="#7D7D7D"/>
<path fill-rule="evenodd" clip-rule="evenodd" d="M156.421 210.803C179.695 207.015 195.284 204.424 203.189 203.032C225.719 199.062 232.289 186.949 228.405 160.518H186.892C181.399 162.103 158.445 171.906 118.03 189.927C110.759 193.534 112.113 204.167 113.442 207.671C113.496 207.814 125.754 228.8 150.216 270.631L184.175 249.016L156.357 213.35C155.623 211.872 155.644 211.023 156.421 210.803Z" fill="#4AD18C"/>
<path fill-rule="evenodd" clip-rule="evenodd" d="M153.43 150.536L129.087 168.397C122.484 170.177 116.968 172.391 112.538 175.041C111.492 175.993 110.227 177.923 114.567 177.589C118.907 177.256 123.486 177.1 124.085 178.579C124.684 180.058 122.058 181.827 123.268 183.822C124.075 185.152 127.887 181.817 134.705 173.815L158.811 163.827L153.43 150.536ZM246.897 151.153L230.949 151.215C240.796 182.976 246.112 199.828 246.897 201.772C248.663 206.144 244.926 212.804 243.328 216.382C248.532 218.709 247.978 210.092 254.543 213.144C260.536 215.929 265.095 220.977 272.019 216.708C272.87 216.183 273.803 214.207 271.549 212.663C265.934 208.816 257.842 202.084 256.749 199.868C255.258 196.845 251.974 180.607 246.897 151.153Z" fill="#915B3C"/>
<path fill-rule="evenodd" clip-rule="evenodd" d="M201.575 84.2907L194.976 83.1598C170.491 104.293 160.434 144.892 130.422 166.399L137.646 175.345C189.711 168.904 202.616 119.383 201.575 84.2907Z" fill="#E87613"/>
<path fill-rule="evenodd" clip-rule="evenodd" d="M230.342 167.15C203.882 167.15 184.419 167.15 171.952 167.15C169.284 167.15 169.787 163.301 170.172 161.358C174.624 138.94 192 114.775 192 82.8638L208.843 80.225C222.774 102.611 227.591 130.172 230.342 167.15Z" fill="#DDE3E9"/>
<path fill-rule="evenodd" clip-rule="evenodd" d="M229.873 102.229C232.319 101.527 234.256 99.8881 235.684 97.3136C241.84 86.2153 239.617 80.1049 233.038 78.0963C226.459 76.0878 220.593 80.225 210.111 80.225C209.541 80.225 209.019 80.2607 208.544 80.3322L203.272 80.6328C188.144 131.858 183.972 166.034 190.755 183.163H236.713C239.436 189.506 242.042 194.844 244.53 199.175H257.053C258.231 161.101 249.171 128.786 229.873 102.229Z" fill="#F4B64C"/>
<path fill-rule="evenodd" clip-rule="evenodd" d="M226.706 156.854C225.26 168.937 222.911 177.707 219.658 183.163H236.713C233.537 175.763 230.201 166.993 226.706 156.854V156.854Z" fill="black" fill-opacity="0.1"/>
</svg>
