<svg width="302" height="311" viewBox="0 0 302 311" fill="none" xmlns="http://www.w3.org/2000/svg">
<path fill-rule="evenodd" clip-rule="evenodd" d="M160.877 5.60677C184.684 -0.741208 210.026 -2.60774 233.521 4.81936C259.725 13.1032 293.866 23.2684 300.928 49.8798C308.571 78.6808 273.056 101.738 266.983 130.912C262.578 152.066 280.625 175.277 270.815 194.521C261.015 213.747 231.993 212.959 217.172 228.627C193.979 253.146 194.263 306.053 160.877 310.743C129.773 315.113 121.336 262.465 94.6675 245.837C69.3115 230.027 29.5668 241.127 11.2786 217.468C-6.69391 194.218 1.04746 159.929 5.83063 130.912C10.1403 104.767 17.7461 77.2341 37.3297 59.4284C55.7433 42.6865 84.7786 48.3332 107.58 38.4001C127.03 29.9269 140.382 11.0716 160.877 5.60677Z" fill="#F3F5E5"/>
<path fill-rule="evenodd" clip-rule="evenodd" d="M130.932 35.7834C126.712 32.9023 123.305 28.8985 122.291 23.6608C119.371 8.56937 141.045 6.25394 147.094 12.6448C153.143 19.0357 157.743 38.1256 152.872 40.8628C150.929 41.9544 146.137 41.8396 140.891 40.3499L149.062 59.4902L132.304 63.9804L130.932 35.7834Z" fill="#B28B67"/>
<path fill-rule="evenodd" clip-rule="evenodd" d="M136.749 21.5398C139.763 30.2243 142.647 34.1979 145.399 33.4604C149.528 32.3542 152.334 28.8178 154.146 28.3324C155.466 27.9786 155.61 29.6955 155.06 31.1444C154.607 32.3398 151.349 34.2479 151.765 35.8012C152.181 37.3545 154.638 35.4083 154.884 36.3295C155.293 37.8533 156.549 40.5875 153.88 41.3025C151.18 42.0261 143.176 43.1254 140.785 39.5084C139.241 37.1741 137.264 32.0099 134.853 24.0158C134.684 24.0404 134.515 24.0752 134.346 24.1205C132.032 24.7404 130.654 27.1021 131.269 29.3954C131.581 30.5596 132.346 31.4824 133.327 32.0277C132.721 33.6436 132.014 35.3514 131.161 37.1468C125.739 35.6189 120.087 28.4076 122.564 19.3617C122.801 15.1918 125.114 12.3787 128.238 10.5231C130.671 8.65481 133.478 7.76549 136.059 7.80312C140.868 6.94298 145.447 7.23903 146.864 7.76412C148.046 12.1762 147.534 13.7163 140.136 15.575C138.58 17.0076 137.625 19.0122 136.749 21.5398Z" fill="#191847"/>
<path fill-rule="evenodd" clip-rule="evenodd" d="M140.462 122.333L175.942 211.787L199.738 287.412H209.135L172.755 122.333L140.462 122.333Z" fill="#997659"/>
<path fill-rule="evenodd" clip-rule="evenodd" d="M133.318 122.333C132.94 153.768 127.43 196.089 126.55 198.049C125.963 199.355 105.704 215.967 65.772 247.885L72.244 254.784C119.36 227.419 144.008 211.911 146.188 208.261C149.458 202.786 160.106 152.406 168.654 122.333H133.318Z" fill="#B28B67"/>
<path fill-rule="evenodd" clip-rule="evenodd" d="M64.8634 245.568C62.6898 246.336 61.1925 247.065 60.3714 247.754C59.3729 248.592 58.0553 249.981 56.4187 251.921C57.3907 253.079 66.1265 263.49 82.626 283.154C85.9902 281.714 87.0457 280.03 85.7923 278.102C84.539 276.173 83.5132 274.559 82.7151 273.257L77.0058 253.31C76.8959 252.927 76.4957 252.704 76.1119 252.814C76.1053 252.816 76.0988 252.818 76.0923 252.82L73.0458 253.786C70.9322 252.801 69.4507 251.803 68.6015 250.791C67.9115 249.968 67.2907 248.554 66.7392 246.548L66.7392 246.548C66.5275 245.778 65.7318 245.326 64.9619 245.537C64.9287 245.546 64.8958 245.557 64.8634 245.568Z" fill="#E4E4E4"/>
<path fill-rule="evenodd" clip-rule="evenodd" d="M195.891 283.992C195.082 286.151 194.677 287.766 194.677 288.838C194.677 290.141 194.895 292.043 195.329 294.544C196.841 294.544 210.432 294.544 236.1 294.544C237.16 291.042 236.548 289.151 234.265 288.871C231.983 288.592 230.086 288.34 228.577 288.115L209.626 279.667C209.262 279.504 208.834 279.668 208.672 280.033C208.669 280.039 208.666 280.045 208.664 280.052L207.446 283.006C205.333 283.992 203.615 284.485 202.294 284.485C201.221 284.485 199.738 284.052 197.847 283.185L197.847 283.185C197.121 282.852 196.263 283.171 195.93 283.896C195.916 283.928 195.903 283.96 195.891 283.992Z" fill="#E4E4E4"/>
<path fill-rule="evenodd" clip-rule="evenodd" d="M164.317 279.623L208.994 274.793L175.883 122.333H135.868L164.317 279.623Z" fill="#252067"/>
<path fill-rule="evenodd" clip-rule="evenodd" d="M75.0136 236.755L104.319 271.308C135.185 237.726 153.181 215.814 158.305 205.572C163.429 195.329 168.035 167.583 172.124 122.333H127.074C124.84 162.142 123.335 182.973 122.557 184.825C121.78 186.678 105.932 203.988 75.0136 236.755Z" fill="#373B97"/>
<path fill-rule="evenodd" clip-rule="evenodd" d="M195.798 105.747L221.432 118.336C227.882 118.904 233.39 120.054 237.957 121.786C239.089 122.499 240.585 124.084 236.482 124.488C232.379 124.892 228.082 125.5 227.765 126.973C227.449 128.445 230.188 129.656 229.386 131.709C228.851 133.078 224.749 130.606 217.078 124.294L192.955 118.98L195.798 105.747ZM108.711 121.693L123.598 119.128C119.615 150.255 117.417 166.785 117.003 168.72C116.072 173.072 120.649 178.644 122.726 181.706C118.252 184.724 117.358 176.627 111.733 180.542C106.599 184.116 103.173 189.555 96.0154 186.728C95.1354 186.381 93.9416 184.698 95.791 182.893C100.399 178.396 106.844 170.81 107.501 168.571C108.397 165.518 108.8 149.892 108.711 121.693Z" fill="#B28B67"/>
<path fill-rule="evenodd" clip-rule="evenodd" d="M140.035 52.1219L146.006 49.9858C172.308 65.5917 188.339 101.655 219.859 116.699L214.586 126.199C164.963 128.779 144.812 84.895 140.035 52.1219Z" fill="#E87613"/>
<path fill-rule="evenodd" clip-rule="evenodd" d="M126.774 133.832C151.456 129.48 169.612 126.279 181.242 124.228C183.731 123.789 182.631 120.296 181.953 118.555C174.128 98.46 153.961 78.8679 148.733 49.2215L132.59 49.5402C123.262 72.6286 123.283 99.0263 126.774 133.832Z" fill="#DDE3E9"/>
<path fill-rule="evenodd" clip-rule="evenodd" d="M116.577 73.4418C114.18 73.1914 112.105 71.9878 110.351 69.8308C102.79 60.5328 103.863 54.4904 109.671 51.5423C115.479 48.5942 121.629 51.4728 131.407 49.7488C131.939 49.655 132.432 49.6023 132.886 49.5906L137.853 49.0027C160.356 94.104 169.847 125.169 166.325 142.197L123.454 149.756C121.953 156.098 120.397 161.485 118.786 165.918L107.104 167.978C99.7678 132.8 102.925 101.288 116.577 73.4418Z" fill="#F4B64C"/>
<path fill-rule="evenodd" clip-rule="evenodd" d="M128.48 123.669C131.808 134.657 135.436 142.417 139.364 146.951L123.454 149.756C125.205 142.359 126.88 133.663 128.48 123.669V123.669Z" fill="black" fill-opacity="0.1"/>
</svg>
