<svg width="332" height="311" viewBox="0 0 332 311" fill="none" xmlns="http://www.w3.org/2000/svg">
<path fill-rule="evenodd" clip-rule="evenodd" d="M160.877 5.60677C184.684 -0.741208 210.026 -2.60774 233.521 4.81936C259.725 13.1032 293.866 23.2684 300.928 49.8798C308.571 78.6808 273.056 101.738 266.983 130.912C262.578 152.066 280.625 175.277 270.815 194.521C261.015 213.747 231.993 212.959 217.172 228.627C193.979 253.146 194.263 306.053 160.877 310.743C129.773 315.113 121.336 262.465 94.6675 245.837C69.3115 230.027 29.5668 241.127 11.2786 217.468C-6.69391 194.218 1.04746 159.929 5.83063 130.912C10.1403 104.767 17.7461 77.2341 37.3297 59.4284C55.7433 42.6865 84.7786 48.3332 107.58 38.4001C127.03 29.9269 140.382 11.0716 160.877 5.60677Z" fill="#E5E9F5"/>
<path fill-rule="evenodd" clip-rule="evenodd" d="M235.137 28.877C231.768 24.9222 229.488 20.0756 229.869 14.6448C230.967 -1.00284 252.749 2.43943 256.986 10.337C261.223 18.2346 260.72 38.2674 255.243 39.6789C253.06 40.2418 248.407 38.8629 243.673 36.009L246.645 57.0346H229.096L235.137 28.877Z" fill="#B28B67"/>
<path fill-rule="evenodd" clip-rule="evenodd" d="M249.246 11.4824C246.865 12.8145 245.17 15.3105 243.13 18.5846C242.633 18.3893 242.092 18.2821 241.526 18.2821C239.103 18.2821 237.139 20.2463 237.139 22.6692C237.139 23.8992 237.645 25.011 238.461 25.8076C237.446 27.2404 236.308 28.7372 235.004 30.2816C230.139 27.363 226.521 18.8564 231.166 10.6444C235.163 -5.80488 257.808 4.40499 262.165 1.63075C263.117 7.5999 260.046 12.4129 249.246 11.4824Z" fill="#191847"/>
<path fill-rule="evenodd" clip-rule="evenodd" d="M228.39 120.512L264.277 211.344L288.347 288.135H297.852L261.054 120.512L228.39 120.512Z" fill="#997659"/>
<path fill-rule="evenodd" clip-rule="evenodd" d="M221.163 120.512C220.781 152.431 215.208 195.405 214.317 197.395C213.724 198.721 193.232 215.589 152.841 247.999L159.388 255.004C207.045 227.217 231.976 211.47 234.181 207.764C237.489 202.205 248.259 151.048 256.906 120.512H221.163Z" fill="#B28B67"/>
<path fill-rule="evenodd" clip-rule="evenodd" d="M151.965 245.661C149.767 246.438 148.252 247.174 147.422 247.871C146.412 248.719 145.079 250.124 143.424 252.086C144.407 253.258 153.243 263.789 169.932 283.678C173.335 282.222 174.403 280.518 173.135 278.568C171.867 276.618 170.83 274.984 170.022 273.668L164.247 253.492C164.136 253.104 163.731 252.879 163.343 252.99C163.337 252.992 163.33 252.994 163.323 252.996L160.242 253.973C158.104 252.977 156.606 251.967 155.747 250.943C155.049 250.111 154.421 248.681 153.863 246.652L153.863 246.652C153.649 245.873 152.844 245.415 152.065 245.629C152.031 245.638 151.998 245.649 151.965 245.661Z" fill="#4B4B4B"/>
<path fill-rule="evenodd" clip-rule="evenodd" d="M284.455 284.59C283.637 286.774 283.228 288.408 283.228 289.492C283.228 290.811 283.448 292.735 283.887 295.264C285.417 295.264 299.163 295.264 325.127 295.264C326.199 291.721 325.58 289.809 323.271 289.526C320.962 289.244 319.044 288.988 317.517 288.761L298.349 280.216C297.98 280.051 297.548 280.217 297.383 280.586C297.38 280.592 297.378 280.598 297.375 280.605L296.143 283.594C294.005 284.591 292.269 285.09 290.932 285.09C289.846 285.09 288.347 284.651 286.434 283.774L286.434 283.774C285.7 283.437 284.832 283.76 284.495 284.494C284.481 284.526 284.467 284.558 284.455 284.59Z" fill="#4B4B4B"/>
<path fill-rule="evenodd" clip-rule="evenodd" d="M252.519 280.226L297.709 275.321L264.217 120.512H223.742L252.519 280.226Z" fill="#69A1AC"/>
<path fill-rule="evenodd" clip-rule="evenodd" d="M162.188 236.697L191.831 271.783C223.052 237.684 241.254 215.434 246.437 205.033C251.62 194.633 256.279 166.459 260.415 120.512H214.847C212.588 160.934 211.065 182.086 210.279 183.967C209.492 185.848 193.462 203.425 162.188 236.697Z" fill="#89C5CC"/>
<path fill-rule="evenodd" clip-rule="evenodd" d="M294.36 111.673L315.849 132.501C322.101 135.151 327.224 138.077 331.217 141.279C332.115 142.355 333.093 144.418 328.868 143.495C324.642 142.572 320.156 141.79 319.362 143.155C318.568 144.521 320.908 146.613 319.44 148.4C318.462 149.591 315.171 145.802 309.568 137.033L287.223 123.943L294.36 111.673ZM189.281 92.8234L205.892 92.8854C193.24 133.609 186.525 154.932 185.745 156.853C183.989 161.175 187.704 167.757 189.292 171.294C184.119 173.595 184.67 165.077 178.144 168.093C172.187 170.847 167.656 175.836 160.773 171.617C159.927 171.098 159 169.145 161.24 167.618C166.822 163.816 174.865 157.161 175.952 154.971C177.434 151.984 181.877 131.268 189.281 92.8234Z" fill="#B28B67"/>
<path fill-rule="evenodd" clip-rule="evenodd" d="M239.896 46.0067L246.456 44.8889C256.789 81.1799 309.88 105.917 313.139 119.484C314.334 124.459 310.73 126.974 312.592 128.489L304.066 134.691C302.622 133.017 299.541 136.078 293.107 133.937C286.673 131.795 239.896 88.9784 239.896 46.0067Z" fill="#DB2721"/>
<path fill-rule="evenodd" clip-rule="evenodd" d="M250.93 50.8314C250.174 98.878 278.128 111.134 271.902 130.408C266.76 146.325 217.543 163.435 209.026 147.833C205.579 141.518 204.015 133.879 203.837 125.575C201.661 131.955 199.939 137.447 198.673 142.052C196.488 149.996 188.019 151.259 188.019 154.319L176.861 151.259C177.617 147.101 172.357 145.077 173.768 135.789C180.087 94.1724 197.066 64.0061 224.705 45.2898L224.998 41.1372C225.114 39.5271 226.51 38.3131 228.121 38.4224L248.77 39.857C250.382 39.9664 251.598 41.3634 251.486 42.9748C251.486 42.9757 251.485 42.9766 251.483 42.9772L250.93 50.8314Z" fill="#FF4133"/>
</svg>
